<svg version="1.1" viewBox="0.0 0.0 155.23622047244095 132.07611548556432" fill="none" stroke="none" stroke-linecap="square" stroke-miterlimit="10" xmlns:xlink="http://www.w3.org/1999/xlink" xmlns="http://www.w3.org/2000/svg"><clipPath id="p.0"><path d="m0 0l155.23622 0l0 132.07611l-155.23622 0l0 -132.07611z" clip-rule="nonzero"/></clipPath><g clip-path="url(#p.0)"><path fill="#000000" fill-opacity="0.0" d="m0 0l155.23622 0l0 132.07611l-155.23622 0z" fill-rule="evenodd"/><path fill="#000000" fill-opacity="0.0" d="m68.492546 48.21226c-3.3669891 -10.088154 -7.9758415 -20.369543 -15.496059 -27.889765c-6.8866158 -6.886614 -23.078815 -3.6588917 -28.923885 4.131233c-17.45879 23.26853 -3.4267788 76.610725 24.792652 83.674545c29.462849 7.3750687 49.582676 -46.07169 49.582676 -76.44357c0 -6.20677 -4.3059616 -16.996101 -10.328087 -15.493439c-8.031914 2.0041542 -7.2309723 15.480349 -7.2309723 23.758532c0 17.54742 2.04879 38.214153 14.461945 50.616795c2.4842224 2.4821167 2.0656204 -6.8189774 2.0656204 -10.330704c0 -9.745216 6.779274 -20.430035 15.493439 -24.792652c11.12336 -5.5687485 21.772026 15.825245 24.792656 27.892384c3.0765533 12.290642 -13.531677 24.820549 -25.824158 27.88977c-7.086731 1.7694321 -15.496063 -8.189148 -15.496063 -15.493439" fill-rule="evenodd"/><path stroke="#a5a58d" stroke-width="4.0" stroke-linejoin="round" stroke-linecap="butt" d="m68.492546 48.21226c-3.3669891 -10.088154 -7.9758415 -20.369543 -15.496059 -27.889765c-6.8866158 -6.886614 -23.078815 -3.6588917 -28.923885 4.131233c-17.45879 23.26853 -3.4267788 76.610725 24.792652 83.674545c29.462849 7.3750687 49.582676 -46.07169 49.582676 -76.44357c0 -6.20677 -4.3059616 -16.996101 -10.328087 -15.493439c-8.031914 2.0041542 -7.2309723 15.480349 -7.2309723 23.758532c0 17.54742 2.04879 38.214153 14.461945 50.616795c2.4842224 2.4821167 2.0656204 -6.8189774 2.0656204 -10.330704c0 -9.745216 6.779274 -20.430035 15.493439 -24.792652c11.12336 -5.5687485 21.772026 15.825245 24.792656 27.892384c3.0765533 12.290642 -13.531677 24.820549 -25.824158 27.88977c-7.086731 1.7694321 -15.496063 -8.189148 -15.496063 -15.493439" fill-rule="evenodd"/></g></svg>