<svg id="visual" viewBox="0 0 900 600" width="900" height="600" xmlns="http://www.w3.org/2000/svg" xmlns:xlink="http://www.w3.org/1999/xlink" version="1.1"><rect x="0" y="0" width="900" height="600" fill="#FFFFFF"></rect><path d="M0 433L21.5 421.8C43 410.7 86 388.3 128.8 390.5C171.7 392.7 214.3 419.3 257.2 426.3C300 433.3 343 420.7 385.8 406.2C428.7 391.7 471.3 375.3 514.2 370.3C557 365.3 600 371.7 642.8 375.5C685.7 379.3 728.3 380.7 771.2 384.2C814 387.7 857 393.3 878.5 396.2L900 399L900 601L878.5 601C857 601 814 601 771.2 601C728.3 601 685.7 601 642.8 601C600 601 557 601 514.2 601C471.3 601 428.7 601 385.8 601C343 601 300 601 257.2 601C214.3 601 171.7 601 128.8 601C86 601 43 601 21.5 601L0 601Z" fill="#8ab353"></path><path d="M0 469L21.5 467.8C43 466.7 86 464.3 128.8 464.3C171.7 464.3 214.3 466.7 257.2 463.8C300 461 343 453 385.8 440.7C428.7 428.3 471.3 411.7 514.2 413.2C557 414.7 600 434.3 642.8 438.5C685.7 442.7 728.3 431.3 771.2 421.7C814 412 857 404 878.5 400L900 396L900 601L878.5 601C857 601 814 601 771.2 601C728.3 601 685.7 601 642.8 601C600 601 557 601 514.2 601C471.3 601 428.7 601 385.8 601C343 601 300 601 257.2 601C214.3 601 171.7 601 128.8 601C86 601 43 601 21.5 601L0 601Z" fill="#6eac5b"></path><path d="M0 473L21.5 471C43 469 86 465 128.8 461.2C171.7 457.3 214.3 453.7 257.2 459.3C300 465 343 480 385.8 481.5C428.7 483 471.3 471 514.2 467.8C557 464.7 600 470.3 642.8 474.2C685.7 478 728.3 480 771.2 475C814 470 857 458 878.5 452L900 446L900 601L878.5 601C857 601 814 601 771.2 601C728.3 601 685.7 601 642.8 601C600 601 557 601 514.2 601C471.3 601 428.7 601 385.8 601C343 601 300 601 257.2 601C214.3 601 171.7 601 128.8 601C86 601 43 601 21.5 601L0 601Z" fill="#52a564"></path><path d="M0 502L21.5 503.7C43 505.3 86 508.7 128.8 514.2C171.7 519.7 214.3 527.3 257.2 522.8C300 518.3 343 501.7 385.8 498C428.7 494.3 471.3 503.7 514.2 512.7C557 521.7 600 530.3 642.8 535C685.7 539.7 728.3 540.3 771.2 540.7C814 541 857 541 878.5 541L900 541L900 601L878.5 601C857 601 814 601 771.2 601C728.3 601 685.7 601 642.8 601C600 601 557 601 514.2 601C471.3 601 428.7 601 385.8 601C343 601 300 601 257.2 601C214.3 601 171.7 601 128.8 601C86 601 43 601 21.5 601L0 601Z" fill="#349d6c"></path><path d="M0 568L21.5 562.2C43 556.3 86 544.7 128.8 544.8C171.7 545 214.3 557 257.2 560.5C300 564 343 559 385.8 554C428.7 549 471.3 544 514.2 540.5C557 537 600 535 642.8 537.7C685.7 540.3 728.3 547.7 771.2 549.7C814 551.7 857 548.3 878.5 546.7L900 545L900 601L878.5 601C857 601 814 601 771.2 601C728.3 601 685.7 601 642.8 601C600 601 557 601 514.2 601C471.3 601 428.7 601 385.8 601C343 601 300 601 257.2 601C214.3 601 171.7 601 128.8 601C86 601 43 601 21.5 601L0 601Z" fill="#009473"></path></svg>